<svg width="114" height="166" viewBox="0 0 114 166" fill="none" xmlns="http://www.w3.org/2000/svg">
<path d="M4.17744 21.7582C12.2563 4.74487 48.7794 1.13598 52.903 0.671985L57.5315 0.311096V104.917C58.6013 103.858 59.7413 102.909 60.9398 102.082C65.1661 99.4754 69.7794 97.9444 74.5016 97.5812C79.2238 97.2179 83.9571 98.0298 88.4163 99.968C105.752 106.825 116.903 126.416 113.284 143.636C112.478 147.277 111.068 150.676 109.142 153.621C107.216 156.566 104.816 158.993 102.091 160.752C97.4202 163.806 92.1957 165.366 86.9015 165.289C82.6412 165.285 78.4085 164.449 74.3625 162.814C58.7939 156.679 48.2745 140.284 48.8636 124.56V33.7707C44.6559 34.3893 38.8913 35.472 32.79 37.0702C26.7504 38.1951 20.9477 40.7518 15.7066 44.5973C11.4989 48 14.1077 54.3929 14.3181 54.9084C16.3294 58.6501 18.6719 62.1081 21.3029 65.2196C22.0682 66.1494 22.5131 67.4035 22.546 68.7235C22.5788 70.0434 22.1969 71.3284 21.4792 72.3136C20.7615 73.2987 19.7627 73.9089 18.6886 74.0182C17.6146 74.1276 16.5472 73.7278 15.7066 72.9013C14.823 71.7156 -7.68838 46.7111 4.17744 21.7582Z" fill="white" fill-opacity="0.36"/>
</svg>
