<svg width="155" height="174" viewBox="0 0 155 174" fill="none" xmlns="http://www.w3.org/2000/svg">
<path d="M46.8751 23.9309V115.026C42.2214 112.19 36.9137 110.68 31.5003 110.651C25.4186 110.651 19.4735 112.5 14.4168 115.965C9.36001 119.431 5.41876 124.356 3.0914 130.118C0.76404 135.88 0.155096 142.22 1.34158 148.338C2.52805 154.455 5.45667 160.074 9.75707 164.484C14.0575 168.894 19.5365 171.897 25.5014 173.114C31.4662 174.331 37.6489 173.706 43.2676 171.32C48.8864 168.933 53.6888 164.891 57.0676 159.705C60.4464 154.519 62.2499 148.422 62.2499 142.185V55.4655L139.124 39.6982V91.3754C134.47 88.5393 129.162 87.0288 123.749 87C117.667 87 111.722 88.8495 106.665 92.3146C101.609 95.7796 97.6675 100.705 95.3401 106.467C93.0127 112.229 92.4038 118.57 93.5903 124.687C94.7768 130.804 97.7054 136.423 102.006 140.833C106.306 145.243 111.785 148.246 117.75 149.463C123.715 150.68 129.898 150.055 135.516 147.669C141.135 145.282 145.938 141.24 149.316 136.054C152.695 130.868 154.499 124.772 154.499 118.535V0.280029L46.8751 23.9309Z" fill="white" fill-opacity="0.36"/>
</svg>
